<?xml version="1.0" encoding="UTF-8" ?>
<!DOCTYPE svg PUBLIC "-//W3C//DTD SVG 1.1//EN" "http://www.w3.org/Graphics/SVG/1.1/DTD/svg11.dtd">
<svg width="750pt" height="750pt" viewBox="0 0 750 750" version="1.1" xmlns="http://www.w3.org/2000/svg">
<path fill="#ffffff" d=" M 0.00 0.00 L 750.00 0.00 L 750.00 750.00 L 0.00 750.00 L 0.00 0.00 Z" />
<path fill="#3daa49" d=" M 305.82 84.87 C 310.77 78.95 320.70 78.27 326.15 83.86 C 343.20 100.93 360.37 117.88 377.40 134.97 C 381.19 131.91 384.42 128.25 387.89 124.84 C 400.57 112.20 413.21 99.53 425.93 86.92 C 428.38 84.55 430.78 81.93 434.00 80.61 C 438.20 79.74 443.08 79.56 446.66 82.34 C 452.86 86.12 454.60 95.00 451.05 101.14 C 449.10 104.12 446.36 106.46 443.89 108.98 C 429.23 123.64 414.53 138.25 399.85 152.89 C 399.13 153.73 397.48 154.99 398.86 156.06 C 415.27 172.67 431.94 189.03 448.39 205.61 C 455.20 211.54 454.07 223.74 446.28 228.34 C 440.78 230.96 433.30 230.78 428.92 226.13 C 412.70 210.02 396.50 193.88 380.38 177.66 C 379.43 176.76 378.39 175.97 377.35 175.18 C 360.69 192.16 343.65 208.77 326.90 225.67 C 321.96 231.11 312.63 231.84 307.18 226.79 C 301.22 221.87 300.97 211.73 306.25 206.23 C 323.22 189.09 340.55 172.29 357.41 155.06 C 340.47 137.53 322.76 120.74 305.74 103.28 C 301.37 98.22 301.27 89.85 305.82 84.87 Z" />
<path fill="#433731" d=" M 304.14 234.72 C 307.33 245.13 314.38 253.67 321.17 261.94 C 336.47 279.29 354.05 294.43 372.11 308.81 C 373.98 310.17 375.60 312.03 377.84 312.80 C 392.80 301.27 406.97 288.70 420.42 275.44 C 432.12 263.19 443.74 250.40 451.24 235.05 C 451.02 246.37 451.41 257.71 451.02 269.02 C 448.72 283.15 439.03 294.56 429.47 304.62 C 420.70 313.66 410.76 321.50 400.35 328.55 C 400.33 328.92 400.28 329.65 400.26 330.02 C 415.88 340.98 430.81 353.41 441.98 369.03 C 445.36 373.96 448.37 379.24 449.99 385.03 C 452.09 391.82 451.13 399.01 451.35 406.01 C 451.18 413.26 451.80 420.57 450.78 427.77 C 447.29 442.95 436.32 454.86 425.52 465.46 C 417.65 473.47 408.10 479.46 399.61 486.73 C 415.29 497.98 430.70 510.23 441.95 526.11 C 447.02 533.43 451.34 541.91 451.20 551.04 C 451.12 560.78 451.22 570.53 451.17 580.28 C 445.45 565.75 434.63 554.10 423.99 543.00 C 409.71 528.41 393.84 515.53 377.82 502.92 C 357.00 518.78 336.89 535.83 319.77 555.69 C 313.49 563.45 307.12 571.51 304.15 581.20 C 304.26 570.44 304.05 559.68 304.25 548.92 C 305.35 535.55 313.98 524.41 322.72 514.85 C 332.35 503.81 344.42 495.39 355.88 486.40 C 339.92 474.89 324.18 462.40 312.93 446.03 C 308.03 438.96 304.18 430.76 304.18 422.01 C 304.19 412.67 304.14 403.33 304.21 393.99 C 304.19 385.94 307.32 378.22 311.73 371.59 C 318.92 360.77 328.01 351.29 338.01 343.02 C 343.76 338.15 350.04 333.97 355.84 329.16 C 339.60 318.09 324.29 305.17 312.88 289.02 C 308.29 282.18 304.47 274.43 304.20 266.05 C 304.11 255.60 304.24 245.16 304.14 234.72 Z" />
<path fill="#ffffff" d=" M 377.42 345.79 C 390.15 354.80 401.83 365.23 413.48 375.58 C 423.72 385.52 434.17 395.45 442.28 407.27 C 424.75 430.60 402.55 449.89 380.01 468.21 C 379.07 468.81 377.81 470.37 376.65 469.32 C 361.35 457.46 346.53 444.94 332.73 431.34 C 325.61 423.90 318.31 416.57 312.48 408.04 C 321.97 394.58 333.80 382.96 345.98 371.96 C 356.07 362.78 366.74 354.26 377.42 345.79 Z" />
<path fill="#433731" d=" M 276.52 492.50 C 279.11 489.66 282.78 487.63 286.69 487.75 C 289.59 487.74 292.09 489.38 294.61 490.58 C 297.40 493.70 299.80 497.69 299.13 502.06 C 298.76 507.25 294.35 510.54 291.16 514.14 C 270.09 537.00 259.29 568.70 261.40 599.66 C 262.67 619.09 268.85 638.22 279.37 654.62 C 295.69 680.20 322.23 699.17 351.93 705.65 C 373.39 710.44 396.25 709.32 417.02 702.02 C 452.85 689.75 481.63 658.82 491.03 622.10 C 501.80 582.98 490.25 538.43 461.10 510.03 C 455.45 504.87 455.92 494.71 462.30 490.35 C 466.87 486.78 473.78 486.96 478.02 490.98 C 499.95 512.18 514.53 540.79 518.91 570.97 C 524.22 605.38 516.19 641.65 496.83 670.58 C 475.85 702.31 441.63 725.05 404.13 731.63 C 376.21 736.97 346.73 733.46 320.71 722.06 C 288.67 708.14 262.21 681.91 247.99 650.01 C 232.09 614.86 231.61 573.11 246.49 537.54 C 253.38 520.71 263.89 505.51 276.52 492.50 Z" />
<path fill="#433731" d=" M 305.80 593.81 C 309.08 588.60 314.37 585.15 319.89 582.69 C 319.91 598.76 319.96 614.84 319.87 630.91 C 312.24 627.99 305.52 622.00 302.96 614.09 C 300.99 607.35 301.78 599.66 305.80 593.81 Z" />
<path fill="#433731" d=" M 328.85 582.72 C 336.36 586.04 343.32 591.93 345.59 600.11 C 348.27 607.84 345.85 616.71 340.54 622.75 C 337.43 626.42 333.25 629.00 328.86 630.88 C 328.88 614.83 328.90 598.77 328.85 582.72 Z" />
<path fill="#433731" d=" M 423.87 587.07 C 431.65 584.51 440.49 587.07 446.48 592.45 C 450.04 595.54 452.38 599.70 454.41 603.89 C 438.37 604.05 422.32 603.63 406.29 604.14 C 409.13 596.19 415.61 589.33 423.87 587.07 Z" />
<path fill="#433731" d=" M 406.23 612.87 C 422.33 612.88 438.44 612.80 454.54 612.89 C 451.89 618.98 447.75 624.64 441.81 627.84 C 434.27 632.02 424.31 631.77 417.17 626.84 C 412.12 623.55 408.32 618.50 406.23 612.87 Z" />
</svg>
